<svg width="20" height="20" viewBox="0 0 20 20" fill="none" xmlns="http://www.w3.org/2000/svg">
<path d="M15.0333 11.2923C14.6833 11.634 14.4833 12.1256 14.5333 12.6506C14.6083 13.5506 15.4333 14.209 16.3333 14.209H17.9166V15.2006C17.9166 16.9256 16.5083 18.334 14.7833 18.334H5.21659C3.49159 18.334 2.08325 16.9256 2.08325 15.2006V9.59233C2.08325 7.86733 3.49159 6.45898 5.21659 6.45898H14.7833C16.5083 6.45898 17.9166 7.86733 17.9166 9.59233V10.7923H16.2333C15.7666 10.7923 15.3416 10.9756 15.0333 11.2923Z" stroke="black" stroke-width="1.2" stroke-linecap="round" stroke-linejoin="round"/>
<path d="M2.08325 10.3421V6.53379C2.08325 5.54212 2.69159 4.65875 3.61659 4.30875L10.2333 1.80875C11.2666 1.41708 12.3749 2.18377 12.3749 3.29211V6.45876" stroke="black" stroke-width="1.2" stroke-linecap="round" stroke-linejoin="round"/>
<path d="M18.7989 11.642V13.3587C18.7989 13.817 18.4323 14.192 17.9656 14.2086H16.3323C15.4323 14.2086 14.6073 13.5503 14.5323 12.6503C14.4823 12.1253 14.6823 11.6336 15.0323 11.292C15.3406 10.9753 15.7656 10.792 16.2323 10.792H17.9656C18.4323 10.8087 18.7989 11.1836 18.7989 11.642Z" stroke="black" stroke-width="1.2" stroke-linecap="round" stroke-linejoin="round"/>
<path d="M5.83325 10H11.6666" stroke="black" stroke-width="1.2" stroke-linecap="round" stroke-linejoin="round"/>
</svg>
